<svg preserveAspectRatio="xMidYMid meet" viewBox="316.594176 62.668800000000005 358.4 778.24" version="1.0" xmlns="http://www.w3.org/2000/svg" style="max-height: 500px" width="358.4" height="778.24">

<g stroke="none" fill="#0ce5fe" transform="translate(0.000000,1024.000000) scale(0.100000,-0.100000)">
<path fill="#0ce5fe" d="M4658 9119 c-30 -29 -31 -33 -25 -93 8 -81 63 -227 124 -328 62 -104 202 -239 298 -290 127 -67 216 -91 335 -91 131 -1 197 17 305 84 94 57 174 136 238 234 25 39 55 82 66 96 51 66 111 232 111 306 0 43 -41 90 -91 103 -50 14 -154 -5 -181 -32 -10 -10 -18 -31 -18 -46 0 -43 -28 -141 -57 -201 -37 -77 -160 -203 -224 -231 -113 -48 -249 -46 -353 7 -28 14 -80 55 -116 92 -84 85 -137 185 -156 293 -8 44 -17 84 -20 90 -13 21 -76 38 -139 38 -61 0 -69 -3 -97 -31z"/>
<path fill="#0ce5fe" d="M4871 8215 c-42 -49 -61 -88 -68 -143 -5 -43 44 -394 117 -847 111 -686 160 -966 186 -1069 l6 -26 45 41 c82 75 190 105 351 97 107 -6 151 -20 204 -67 61 -53 61 -52 81 167 10 108 31 289 48 402 88 599 137 1005 145 1205 5 133 5 142 -18 185 -26 50 -78 90 -116 90 -14 0 -69 -20 -121 -45 -122 -57 -204 -77 -311 -78 -102 0 -170 16 -313 77 -140 60 -191 62 -236 11z"/>
<path fill="#0ce5fe" d="M5381 6104 c-81 -22 -154 -82 -194 -160 -64 -125 -28 -299 85 -406 51 -49 135 -88 187 -88 48 0 149 36 201 72 107 73 160 267 110 400 -37 99 -101 154 -215 184 -63 17 -105 17 -174 -2z m175 -173 c90 -55 105 -203 27 -273 -81 -74 -205 -52 -252 44 -23 49 -27 108 -10 158 27 75 161 116 235 71z"/>
<path fill="#0ce5fe" d="M5076 5518 c-28 -43 -36 -86 -47 -253 -22 -348 -77 -804 -129 -1075 -17 -86 -30 -163 -30 -173 0 -23 26 -34 104 -47 88 -14 150 -40 231 -95 36 -25 72 -45 78 -45 18 0 38 36 75 135 19 50 46 124 61 165 66 177 112 293 125 313 8 12 22 49 31 82 10 33 26 77 37 98 41 81 191 508 244 692 22 78 13 165 -17 165 -6 0 -37 -24 -69 -53 -56 -53 -166 -107 -246 -123 -47 -9 -139 12 -218 50 -69 34 -165 115 -197 166 l-16 24 -17 -26z"/>
<path fill="#0ce5fe" d="M4641 3838 c-84 -12 -364 -84 -417 -108 -23 -10 -45 -27 -49 -39 -8 -27 10 -92 36 -126 18 -22 28 -26 55 -23 19 2 34 0 34 -5 0 -4 -13 -38 -28 -75 -44 -104 -47 -136 -13 -175 16 -18 44 -66 63 -108 34 -72 37 -77 74 -83 68 -12 93 -27 125 -77 37 -57 54 -69 104 -69 25 0 54 -11 88 -33 29 -19 72 -44 97 -57 25 -13 58 -30 73 -38 47 -24 87 -9 141 54 28 32 54 75 62 101 8 25 27 65 42 89 16 23 44 89 63 146 32 96 34 111 34 233 -1 143 -16 203 -74 281 -71 99 -282 145 -510 112z"/>
<path fill="#0ce5fe" d="M3891 3610 c-74 -27 -142 -57 -153 -67 -10 -11 -21 -35 -24 -54 -9 -51 33 -99 84 -99 51 0 218 46 259 71 45 28 67 72 58 116 -7 40 -45 83 -72 82 -10 0 -78 -22 -152 -49z"/>
<path fill="#0ce5fe" d="M4104 3158 c-17 -13 -111 -99 -209 -193 -342 -326 -315 -296 -315 -343 0 -62 28 -86 91 -80 61 6 112 47 383 311 l199 193 -6 43 c-11 84 -79 116 -143 69z"/>
<path fill="#0ce5fe" d="M4292 2973 c-11 -10 -55 -61 -98 -113 -101 -124 -205 -241 -326 -367 -54 -56 -103 -114 -108 -128 -42 -110 50 -171 149 -98 23 17 81 75 128 129 47 55 104 119 127 144 23 26 64 75 91 109 28 35 73 90 102 122 53 59 83 107 83 133 0 8 -14 31 -31 51 -36 40 -83 47 -117 18z"/>
<path fill="#0ce5fe" d="M4504 2808 c-28 -32 -75 -98 -141 -198 -30 -47 -83 -119 -117 -160 -33 -41 -74 -92 -89 -112 -33 -44 -77 -136 -77 -160 0 -53 54 -97 105 -84 33 8 92 61 112 100 9 17 48 74 87 127 39 53 94 129 121 169 28 39 72 103 98 140 26 38 51 85 54 104 12 76 -103 131 -153 74z"/>
<path fill="#0ce5fe" d="M4748 2703 c-26 -29 -94 -152 -118 -213 -8 -19 -34 -66 -59 -105 -64 -101 -121 -224 -121 -261 0 -17 9 -43 21 -58 16 -21 29 -26 64 -26 39 0 47 4 76 42 18 22 67 109 109 192 42 83 98 190 123 239 48 90 55 119 36 160 -12 27 -58 57 -86 57 -11 0 -31 -12 -45 -27z"/>
</g>
</svg>